#define arrow_nw_width 5
#define arrow_nw_height 5
static unsigned char arrow_nw_bits[] = {
  0x1c, 0x18, 0x14, 0x2, 0x1 };
