#define clock1_width 5
#define clock1_height 5
static unsigned char clock1_bits[] = {
  0x2, 0x2, 0x4, 0x0, 0x0 };
