#define confused_width 5
#define confused_height 5
static unsigned char confused_bits[] = {
  0x0, 0xa, 0x0, 0xa, 0x15 };
