#define happy_width 5
#define happy_height 5
static unsigned char happy_bits[] = {
  0x0, 0xa, 0x0, 0x11, 0xe };
