#define heart_small_width 5
#define heart_small_height 5
static unsigned char heart_small_bits[] = {
  0x0, 0xa, 0xe, 0x4, 0x0 };
