#define letter_125_width 4
#define letter_125_height 5
static char letter_125_bits[] = {
  0x03, 0x02, 0x04, 0x02, 0x03, };
