#define letter_37_width 6
#define letter_37_height 5
static char letter_37_bits[] = {
  0x11, 0x08, 0x04, 0x02, 0x11, };
