#define letter_90_width 4
#define letter_90_height 5
static char letter_90_bits[] = {
  0x07, 0x04, 0x02, 0x01, 0x07, };
