#define letter_55_width 4
#define letter_55_height 5
static unsigned char letter_55_bits[] = {
   0x07, 0x04, 0x02, 0x01, 0x01 };
