#define letter_96_width 3
#define letter_96_height 5
static char letter_96_bits[] = {
  0x01, 0x02, 0x00, 0x00, 0x00, };
