#define letter_78_width 6
#define letter_78_height 5
static char letter_78_bits[] = {
  0x11, 0x13, 0x15, 0x19, 0x11, };
