#define letter_94_width 4
#define letter_94_height 5
static char letter_94_bits[] = {
  0x02, 0x05, 0x00, 0x00, 0x00, };
