#define letter_49_width 3
#define letter_49_height 5
static char letter_49_bits[] = {
  0x02, 0x03, 0x02, 0x02, 0x02, };
