#define letter_39_width 3
#define letter_39_height 5
static char letter_39_bits[] = {
  0x02, 0x01, 0x00, 0x00, 0x00, };
