#define letter_65_width 4
#define letter_65_height 5
static char letter_65_bits[] = {
  0x02, 0x05, 0x07, 0x05, 0x05, };
