#define letter_91_width 3
#define letter_91_height 5
static char letter_91_bits[] = {
  0x03, 0x01, 0x01, 0x01, 0x03, };
