#define letter_40_width 3
#define letter_40_height 5
static char letter_40_bits[] = {
  0x02, 0x01, 0x01, 0x01, 0x02, };
