#define letter_60_width 3
#define letter_60_height 5
static unsigned char letter_60_bits[] = {
   0x00, 0x02, 0x01, 0x02, 0x00 };
