#define letter_84_width 4
#define letter_84_height 5
static char letter_84_bits[] = {
  0x07, 0x02, 0x02, 0x02, 0x02, };
