#define letter_89_width 4
#define letter_89_height 5
static char letter_89_bits[] = {
  0x05, 0x05, 0x02, 0x02, 0x02, };
