#define letter_52_width 4
#define letter_52_height 5
static char letter_52_bits[] = {
  0x05, 0x05, 0x07, 0x04, 0x04, };
