#define letter_88_width 4
#define letter_88_height 5
static char letter_88_bits[] = {
  0x05, 0x05, 0x02, 0x05, 0x05, };
