#define letter_42_width 4
#define letter_42_height 5
static char letter_42_bits[] = {
  0x02, 0x05, 0x02, 0x00, 0x00, };
