#define letter_115_width 4
#define letter_115_height 5
static unsigned char letter_115_bits[] = {
   0x07, 0x01, 0x02, 0x04, 0x07 };
