#define letter_82_width 4
#define letter_82_height 5
static char letter_82_bits[] = {
  0x03, 0x05, 0x03, 0x05, 0x05, };
