#define music_quaver_width 5
#define music_quaver_height 5
static unsigned char music_quaver_bits[] = {
  0x4, 0x6, 0x5, 0x1c, 0x1c };
