#define pacman_width 5
#define pacman_height 5
static unsigned char pacman_bits[] = {
  0xf, 0x1a, 0x1c, 0x1e, 0xf };
