#define rabbit_width 5
#define rabbit_height 5
static unsigned char rabbit_bits[] = {
  0x14, 0x14, 0x1e, 0x1a, 0x1e };
