#define scissors_width 5
#define scissors_height 5
static unsigned char scissors_bits[] = {
  0x19, 0x1a, 0x4, 0x1a, 0x19 };
