#define square_small_width 5
#define square_small_height 5
static unsigned char square_small_bits[] = {
  0x0, 0xe, 0xa, 0xe, 0x0 };
