#define tortoise_width 5
#define tortoise_height 5
static unsigned char tortoise_bits[] = {
  0x0, 0xe, 0x1f, 0xa, 0x0 };
