#define yes_width 5
#define yes_height 5
static unsigned char yes_bits[] = {
  0x0, 0x1, 0x2, 0x14, 0x8 };
